<svg t="1727444915006" class="icon" viewBox="0 0 1024 1024" version="1.1" xmlns="http://www.w3.org/2000/svg" p-id="3770" width="64" height="64"><path d="M985.742 749.936c0 130.902-106.178 236.964-237.13 236.964H274.336c-130.994 0-237.132-106.062-237.132-236.964V276.018c0-130.864 106.138-236.966 237.132-236.966h474.274c130.954 0 237.13 106.102 237.13 236.966v473.918z" fill="#00B4F0" p-id="3771"></path><path d="M215.052 696.866c41.454-16.354 74.954-22.908 103.128-22.908 46.43 0 78.628 17.546 109.004 37.334a168017.14 168017.14 0 0 0 56.774-189.632c-8.22-4.974-16.48-9.986-25.242-14.576-20.416-10.298-48.9-20.944-80.084-20.944a122.58 122.58 0 0 0-10.626 0.424c-31.3 2.544-59.784 10.376-79.816 17.278a460.014 460.014 0 0 0-18.256 6.828l-54.882 186.196zM738.96 563.65c-39.984 14.04-74.45 19.322-103.59 19.322-63.412 0-101.968-24.76-118.604-37.76l-54.73 185.902c-0.078-0.078 63.954 38.566 112.004 38.566 30.412 0 66.768-7.29 112.198-25.648l52.722-180.382zM550.074 291.098s-39.292-23.064-66.654-29.89c-13.044-3.008-27.828-4.938-44.154-4.938h-0.616c-27.828 0.54-61.138 7.134-102.134 23.488l-54.034 185.746c42.108-16.776 76.226-24.22 104.914-24.22h1.464c44.5 0.424 76.034 17.856 105.368 36.872 11.23-37.256 44.576-149.182 55.846-186.942v-0.116zM584.656 315.204l-55.426 187.75c0.156 0.156 0.386 0.27 0.582 0.386 30.488 19.938 70.126 36.088 117.948 36.088 31.61 0 66.732-7.058 105.134-24.752v-0.27c0.078 0 0.194-0.078 0.346-0.118l54.654-184.316c-40.374 17.24-75.726 23.604-105.944 23.604-60.094 0.004-99.77-25.066-117.294-38.372z" fill="#FFFFFF" p-id="3772"></path><path d="M215.052 696.866c41.454-16.354 74.954-22.908 103.128-22.908 46.43 0 78.628 17.546 109.004 37.334a168017.14 168017.14 0 0 0 56.774-189.632c-8.22-4.974-16.48-9.986-25.242-14.576-20.416-10.298-48.9-20.944-80.084-20.944a122.58 122.58 0 0 0-10.626 0.424c-31.3 2.544-59.784 10.376-79.816 17.278a460.014 460.014 0 0 0-18.256 6.828l-54.882 186.196zM738.96 563.65c-39.984 14.04-74.45 19.322-103.59 19.322-63.412 0-101.968-24.76-118.604-37.76l-54.73 185.902c-0.078-0.078 63.954 38.566 112.004 38.566 30.412 0 66.768-7.29 112.198-25.648l52.722-180.382zM550.074 291.098s-39.292-23.064-66.654-29.89c-13.044-3.008-27.828-4.938-44.154-4.938h-0.616c-27.828 0.54-61.138 7.134-102.134 23.488l-54.034 185.746c42.108-16.776 76.226-24.22 104.914-24.22h1.464c44.5 0.424 76.034 17.856 105.368 36.872 11.23-37.256 44.576-149.182 55.846-186.942v-0.116zM584.656 315.204l-55.426 187.75c0.156 0.156 0.386 0.27 0.582 0.386 30.488 19.938 70.126 36.088 117.948 36.088 31.61 0 66.732-7.058 105.134-24.752v-0.27c0.078 0 0.194-0.078 0.346-0.118l54.654-184.316c-40.374 17.24-75.726 23.604-105.944 23.604-60.094 0.004-99.77-25.066-117.294-38.372z" fill="#FFFFFF" p-id="3773"></path><path d="M378.632 486.138c31.186 0 59.668 10.646 80.084 20.944 8.76 4.59 17.022 9.602 25.242 14.576a161631.34 161631.34 0 0 1-56.774 189.632c-30.376-19.788-62.574-37.334-109.004-37.334-28.174 0-61.676 6.554-103.128 22.908l54.884-186.196a460.014 460.014 0 0 1 18.256-6.828c20.032-6.904 48.516-14.734 79.816-17.278a122.502 122.502 0 0 1 10.624-0.424m0-19.754c-4.414 0-8.43 0.162-12.276 0.494-34.136 2.782-64.844 11.478-84.6 18.288a2.71 2.71 0 0 1-0.136 0.046c-7.266 2.564-13.316 4.828-19.038 7.122a19.75 19.75 0 0 0-11.594 12.75L196.104 691.28a19.754 19.754 0 0 0 26.196 23.962c36.724-14.486 68.086-21.53 95.88-21.53 42.288 0 71.71 16.862 98.222 34.132a19.76 19.76 0 0 0 17.57 1.998 19.742 19.742 0 0 0 12.13-12.866c11.792-39.236 49.766-166.1 56.788-189.682a19.756 19.756 0 0 0-8.706-22.538l-0.408-0.246c-8.228-4.98-16.738-10.13-25.894-14.928l-0.272-0.14c-30.334-15.298-60.272-23.058-88.978-23.058z m138.136 78.828c16.634 13 55.192 37.76 118.604 37.76 29.14 0 63.606-5.284 103.59-19.322l-52.72 180.382c-45.43 18.36-81.786 25.648-112.198 25.648-47.988 0-111.918-38.544-112.004-38.566l54.728-185.902m222.192 18.438h0.01M516.766 525.458a19.752 19.752 0 0 0-18.95 14.176l-54.73 185.902a19.754 19.754 0 0 0 9.088 22.696l0.036 0.022c11.684 6.876 72.468 41.182 121.83 41.182 35.376 0 74.496-8.86 119.6-27.088a19.744 19.744 0 0 0 11.558-12.774l52.548-179.792a19.8 19.8 0 0 0 0.97-6.132c0-10.732-8.554-19.466-19.218-19.746a20.148 20.148 0 0 0-1.744 0.028 19.696 19.696 0 0 0-5.764 1.228c-34.252 11.982-66.76 18.058-96.624 18.058-52.468 0-86.844-18.256-106.44-33.57a19.726 19.726 0 0 0-12.16-4.19z m-77.5-269.186c16.326 0 31.11 1.928 44.154 4.938 27.364 6.826 66.654 29.89 66.654 29.89v0.116c-11.272 37.758-44.616 149.684-55.846 186.942-29.334-19.014-60.868-36.448-105.368-36.872h-1.464c-28.688 0-62.806 7.444-104.914 24.22l54.034-185.746c40.998-16.352 74.306-22.948 102.134-23.488h0.616m0-19.754h-0.616c-0.128 0-0.256 0-0.382 0.004-33.01 0.64-68.688 8.782-109.07 24.888a19.754 19.754 0 0 0-11.65 12.832l-54.034 185.746a19.754 19.754 0 0 0 26.278 23.868c38.538-15.354 70.464-22.818 97.602-22.818h1.368c40.066 0.406 68.76 16.866 94.722 33.694a19.758 19.758 0 0 0 29.658-10.876c8.664-28.742 30.628-102.388 45.162-151.122l10.7-35.87a19.74 19.74 0 0 0 0.826-5.65v-0.116a19.75 19.75 0 0 0-9.754-17.036c-1.706-1-42.09-24.59-71.874-32.02l-0.34-0.082c-15.66-3.612-32.01-5.442-48.596-5.442z m145.39 78.686c17.524 13.306 57.2 38.376 117.294 38.376 30.216 0 65.57-6.364 105.944-23.604l-54.654 184.316c-0.152 0.04-0.268 0.118-0.346 0.118v0.27c-38.402 17.694-73.526 24.752-105.134 24.752-47.82 0-87.458-16.15-117.948-36.088-0.196-0.116-0.426-0.232-0.582-0.386l55.426-187.754m-0.002-19.754a19.754 19.754 0 0 0-18.944 14.162l-55.426 187.75a19.754 19.754 0 0 0 5.022 19.606c1.542 1.532 3.02 2.528 4.112 3.18 39.772 25.904 82.948 39.038 128.342 39.038 36.988 0 75.142-8.938 113.4-26.564a19.734 19.734 0 0 0 6.64-4.978 19.728 19.728 0 0 0 4.378-7.734l54.654-184.314a19.758 19.758 0 0 0-18.942-25.37c-2.618 0-5.254 0.52-7.754 1.588-34.212 14.61-67.248 22.016-98.186 22.016-49.678 0-84.708-18.682-105.35-34.354a19.716 19.716 0 0 0-11.946-4.026z" fill="#0087B4" p-id="3774"></path><path d="M728.078 956.122H294.83c-124.896 0-226.506-101.636-226.506-226.566V296.358c0-124.908 101.61-226.526 226.506-226.526h433.248c124.918 0 226.544 101.62 226.544 226.526v433.198c0.002 124.928-101.626 226.566-226.544 226.566zM294.83 89.636c-113.976 0-206.702 92.734-206.702 206.72v433.198c0 114.008 92.726 206.762 206.702 206.762h433.248c113.996 0 206.74-92.754 206.74-206.762V296.358c0-113.986-92.744-206.72-206.74-206.72H294.83z" fill="#0087B4" p-id="3775"></path></svg>